<?xml version="1.0" encoding="utf-8"?>
<!-- Generator: Adobe Illustrator 16.0.0, SVG Export Plug-In . SVG Version: 6.00 Build 0)  -->
<!DOCTYPE svg PUBLIC "-//W3C//DTD SVG 1.1//EN" "http://www.w3.org/Graphics/SVG/1.1/DTD/svg11.dtd">
<svg version="1.1" xmlns="http://www.w3.org/2000/svg" xmlns:xlink="http://www.w3.org/1999/xlink" x="0px" y="0px" width="90px"
	 height="185px" viewBox="0 0 90 185" style="enable-background:new 0 0 90 185;" xml:space="preserve">
<style type="text/css">
<![CDATA[
	.st0{display:none;fill:#FFFFFF;}
	.st1{fill-rule:evenodd;clip-rule:evenodd;}
	.st2{opacity:0.5;}
	.st3{display:inline;}
	.st4{display:none;fill-rule:evenodd;clip-rule:evenodd;fill:#FFFFFF;}
	.st5{display:none;}
	.st6{display:none;fill-rule:evenodd;clip-rule:evenodd;}
]]>
</style>
<g id="Layer_8" class="st5">
</g>
<g id="Layer_9">
</g>
<g id="Layer_7">
</g>
<g id="Layer_1" class="st5">
</g>
<g id="Layer_2" class="st5">
</g>
<g id="Layer_3">
	<g id="Layer_4">
	</g>
</g>
<g id="Layer_5">
</g>
<g id="Layer_6">
	<g class="st2">
		<path class="st1" d="M9.004,13.599c-0.018-0.018,0.142-1.848,1.887-1.848c1.727,0,3.632,0,9.186,0c1.098,0,1.264,0.623,1.29,1.676
			c0.028,1.143,0.006,2.286,0.006,3.554c7.471,0,21.014-0.067,22.742-0.067c0,0-0.016-1.579,0-1.848
			c0.025-0.432,0-1.512,1.854-1.512c1.841,0,1.841,1.424,1.841,1.512c0,1.848,0,1.848,0,1.848c0.242,0,15.261,0.062,22.118,0.062
			c0-1.45-0.007-2.618-0.007-3.88c0-0.869,0.604-1.322,1.361-1.322c3.124,0,6.198-0.003,9.339-0.003
			c0.824,0,1.483,0.488,1.481,1.403c-0.009,4.75-0.067,9.41-0.067,14.252c0,4.765,0.008,9.342,0.008,14.211
			c0.004,1.05-0.316,1.848-1.855,1.848c-2.816,1.146-7.579,3.372-12.083,4.842c-1.04,0.378,0,0,0,0
			c3.064,5.078,5.347,9.504,8.533,14.783c-20.715,0-41.26,0-62.225,0c0.988-1.755,11.189-14.783,11.189-14.783l-11.06-3.696
			c0,0,0,0-3.691-1.146c-1.052,0-1.848-0.591-1.848-1.848c0-6.151,0.046-11.608,0.013-16.657C8.988,20.747,9.004,18.14,9.004,13.599
			z M47.778,40.936c0,0,12.158-0.088,16.606,0c0.063,0.062,7.034-5.924,5.986-4.876c-0.543-0.543-9.656-6.211-9.656-6.211
			l-9.241,5.544C51.474,35.393,47.778,37.24,47.778,40.936z M44.083,40.936c0-3.696-3.69-5.543-3.69-5.543s-9.236-5.344-9.658-5.104
			c-3.262,1.856-6.45,3.841-9.883,5.921c1.621,1.441,6.225,4.723,6.605,4.726c3.438,0.035,5.94,0,9.379,0
			C38.996,40.936,41.952,40.936,44.083,40.936z"/>
		<path class="st1" d="M25.631,37.209"/>
		<path class="st1" d="M78.436,132.503c-0.13-5.498-0.449-10.991-0.612-16.488c-0.159-5.321-0.216-10.645-0.334-15.966
			c-0.145-6.497-0.301-12.994-0.466-19.491c-0.122-4.853-0.281-9.705-0.385-14.558c-0.016-0.713-0.152-0.965-0.95-0.965
			c-11.253,0-51.905-0.104-59.83-0.104c-1.73-0.051-1.563,0.867-1.588,1.812c-0.104,4.013-0.128,8.028-0.214,12.042
			c-0.127,5.941-0.298,11.881-0.42,17.822c-0.111,5.386-0.165,10.773-0.275,16.159c-0.109,5.333-0.273,10.665-0.383,15.998
			c-0.091,4.496-0.078,8.997-0.22,13.491c-0.162,5.191-0.1,10.312,1.26,15.414c1.686,6.316,5.079,11.313,10.393,15.035
			c3.139,2.198,6.556,3.841,10.306,4.71c2.434,0.564,7.545,2.083,7.545,2.083c0.024,2.26-0.217,2.26,3.819,2.26
			c3.708,0,3.596,0,3.572-2.26c0,0,12.167-3.159,17.182-6.731c4.371-3.115,7.403-7.288,9.414-12.299
			c1.352-3.369,2.323-6.79,2.356-10.39C78.662,144.219,78.575,138.359,78.436,132.503z M70.816,73.238h2.185v1.366h-2.185V73.238z
			 M53.26,73.238h2.185v1.366H53.26V73.238z M19.315,77.045H17.83v-6.163h1.485V77.045z M19.742,73.025l1.689-2.143h1.827
			l-3.517,4.259V73.025z M21.766,77.045l-1.024-2.382l1.109-1.348l1.596,3.73H21.766z M25.358,77.045h-1.485v-4.37h1.093
			l0.393,0.742V77.045z M30.207,77.07h-2.339l-2.51-4.822h-1.485v-1.366h2.407l2.441,4.797h1.485V77.07z M30.207,75.252h-1.11
			l-0.375-0.699v-3.67h1.485V75.252z M33.467,72.249h-0.922v3.431h0.922v1.365h-1.895l-0.513-0.64v-4.899l0.513-0.624h1.895V72.249z
			 M36.31,76.414l-0.513,0.631h-1.903V75.68h1.059v-3.431h-1.059v-1.366h1.903l0.513,0.615V76.414z M36.736,70.882h1.484
			l0.896,3.534l-0.666,2.057L36.736,70.882z M40.021,77.07h-1.289l1.529-4.643l0.639,1.955L40.021,77.07z M42.224,77.07l-1.75-5.292
			l0.29-0.888h0.718l2.048,6.18H42.224z M43.786,76.524l-0.666-2.005l0.938-3.636h1.477L43.786,76.524z M47.448,77.045h-1.485
			v-6.163h1.485V77.045z M50.75,77.045h-2.876V75.68h2.876V77.045z M52.833,77.045h-1.485v-6.163h1.485V77.045z M56.119,77.045
			H53.26V75.68h2.859V77.045z M56.119,72.249H53.26v-1.366h2.859V72.249z M58.244,77.045h-1.485v-6.163h1.485V77.045z
			 M61.896,76.414l-0.512,0.631h-2.714V75.68h1.741v-3.431h-1.741v-1.366h2.714l0.512,0.615V76.414z M65.218,72.249h-0.981v3.431
			h0.981v1.365h-1.955l-0.512-0.64v-4.899l0.512-0.624h1.955V72.249z M68.137,76.414l-0.513,0.631h-1.98V75.68h1.093v-1.017h-1.195
			v-1.365h2.596V76.414z M68.137,72.812h-1.357v-0.563h-1.136v-1.366h1.98l0.513,0.615V72.812z M70.39,77.045h-1.485v-6.163h1.485
			V77.045z M73.676,77.045h-2.859V75.68h2.859V77.045z M73.676,72.249h-2.859v-1.366h2.859V72.249z"/>
	</g>
</g>
</svg>
