<svg version="1.1" xmlns="http://www.w3.org/2000/svg" xmlns:xlink="http://www.w3.org/1999/xlink" x="0px" y="0px"
	 width="595.28px" height="841.89px" viewBox="0 0 595.28 841.89" style="enable-background:new 0 0 595.28 841.89;"
	 xml:space="preserve">
<style type="text/css">
<![CDATA[
	.st0{display:none;fill:#FFFFFF;}
	.st1{font-family:'Militia-SansPro';}
	.st2{font-size:86.0002;}
	.st3{fill-rule:evenodd;clip-rule:evenodd;fill:#252525;}
	.st4{fill-rule:evenodd;clip-rule:evenodd;fill:#292929;}
	.st5{display:inline;}
	.st6{display:none;fill-rule:evenodd;clip-rule:evenodd;fill:#FFFFFF;}
	.st7{display:none;}
	.st8{display:none;fill-rule:evenodd;clip-rule:evenodd;}
]]>
</style>
<g id="Layer_7">
</g>
<g id="Layer_1" class="st7">
	<text transform="matrix(1 0 0 1 13.334 119.001)" class="st5 st1 st2">KNOWLEDGE</text>
</g>
<g id="Layer_2" class="st7">
	<g class="st5">
		<path d="M32.598,262.334H17.634v-62.091h14.964V262.334z M36.897,243.157v-21.328l17.028-21.585h18.404L36.897,243.157z
			 M58.139,224.753l16.082,37.582H57.279l-10.32-23.994L58.139,224.753z"/>
		<path d="M118.769,262.592l-25.284-48.589H78.521v-13.76h24.252l24.595,48.331h14.964v14.018H118.769z M93.485,225.785v36.549
			H78.521v-44.031h11.008L93.485,225.785z M127.369,237.223v-36.979h14.964v44.031h-11.18L127.369,237.223z"/>
		<path d="M154.373,200.244h19.092v13.76h-9.288v34.571h9.288v13.76h-19.092l-5.16-6.45v-49.363L154.373,200.244z M177.765,214.003
			v-13.76h19.178l5.16,6.192v49.535l-5.16,6.364h-19.178v-13.76h10.664v-34.571H177.765z"/>
		<path d="M223.688,256.573l-17.286-56.329h14.964l9.03,35.604L223.688,256.573z M248.37,235.503l-8.858,27.089h-12.986
			l15.394-46.783L248.37,235.503z M244.07,209.273l2.924-8.944h7.224l20.64,62.263H261.7L244.07,209.273z M270.729,236.879
			l9.46-36.635h14.878l-17.63,56.845L270.729,236.879z"/>
		<path d="M301.089,262.334v-62.091h14.964v62.091H301.089z M320.353,262.334v-13.76h28.981v13.76H320.353z"/>
		<path d="M355.354,262.334v-62.091h14.964v62.091H355.354z M374.618,214.003v-13.76h28.81v13.76H374.618z M374.618,237.739v-13.76
			h22.016v13.76H374.618z M374.618,262.334v-13.76h28.81v13.76H374.618z"/>
		<path d="M424.841,200.244v62.091h-14.964v-62.091H424.841z M429.141,214.003v-13.76h27.348l5.16,6.192v49.535l-5.16,6.364h-27.348
			v-13.76h17.544v-34.571H429.141z"/>
		<path d="M483.492,248.575h9.89v13.76h-19.693l-5.16-6.45v-49.363l5.16-6.278h19.693v13.76h-9.89V248.575z M522.794,255.971
			l-5.16,6.364h-19.952v-13.76h11.008v-10.234H496.65v-13.76h26.144V255.971z M497.682,214.003v-13.76h19.952l5.16,6.192v13.244
			H509.12v-5.676H497.682z"/>
		<path d="M530.534,262.334v-62.091h14.964v62.091H530.534z M549.798,214.003v-13.76h28.81v13.76H549.798z M549.798,237.739v-13.76
			h22.016v13.76H549.798z M549.798,262.334v-13.76h28.81v13.76H549.798z"/>
	</g>
</g>
<g id="Layer_3">
	<path class="st0" d="M-23,872.74c0-313.581,0-627.162,0-940.875c231.292,0,462.618,0,694.149,0c0,313.536,0,627.205,0,940.875
		C439.862,872.74,208.449,872.74-23,872.74z M321.781,824.103c0.552-0.23,1.121-0.559,1.735-0.705
		c1.098-0.265,2.213-0.507,3.335-0.608c29.716-2.672,57.529-11.194,81.955-28.599c21.284-15.168,36.053-35.493,45.847-59.9
		c6.582-16.404,11.312-33.066,11.479-50.604c0.271-28.523-0.146-57.062-0.827-85.581c-0.641-26.778-2.19-53.533-2.987-80.31
		c-0.771-25.913-1.047-51.842-1.624-77.762c-0.705-31.645-1.465-63.287-2.266-94.929c-0.598-23.636-1.367-47.268-1.878-70.906
		c-0.076-3.475-0.765-5.125-4.627-4.702c-4.024,0.441-8.106,0.525-12.161,0.492c-33.856-0.28-67.713-0.826-101.57-0.878
		c-24.546-0.039-49.093,0.795-73.64,0.804c-34.68,0.012-69.373,0.08-104.03-0.925c-8.425-0.245-7.612,4.218-7.732,8.831
		c-0.508,19.545-0.623,39.1-1.041,58.647c-0.62,28.935-1.453,57.866-2.049,86.802c-0.541,26.232-0.801,52.47-1.337,78.703
		c-0.531,25.973-1.334,51.938-1.864,77.911c-0.446,21.901-0.382,43.816-1.07,65.709c-0.793,25.281-0.489,50.228,6.136,75.068
		c8.204,30.763,24.737,55.106,50.615,73.23c15.286,10.704,31.928,18.707,50.193,22.939c11.852,2.748,23.808,5.046,35.663,7.778
		c2.018,0.466,5.002,1.764,5.428,3.273c2.263,8.035,8.295,9.783,15.316,10.101C315.331,838.279,322.808,830.289,321.781,824.103z
		 M127.475,17.74c0,22.118-0.11,42.741,0.027,63.362c0.185,27.951,0.85,55.902,0.625,83.848c-0.049,6.122,2.137,6.326,6.92,6.759
		c6.998,0.633,14.143,1.705,20.771,3.939c12.809,4.319,25.052,10.47,38.024,14.085c6.735,1.877,4.985,3.869,2.71,7.412
		c-9.979,15.541-20.134,30.971-29.963,46.605c-4.404,7.006-8.19,14.402-13.005,22.947c102.107,0,202.172,0,303.063,0
		c-15.516-25.709-30.432-50.424-45.359-75.156c6.061-2.61,11.914-5.457,17.994-7.684c15.004-5.496,29.229-14.628,46.165-12.046
		c7.824,1.193,7.917-3.263,7.896-8.376c-0.093-23.511-0.393-47.023-0.404-70.534c-0.011-23.139,0.282-46.278,0.326-69.418
		c0.009-4.452-3.058-6.665-7.07-6.686c-15.167-0.075-30.337,0.08-45.503,0.324c-3.682,0.059-6.666,1.716-6.756,5.981
		c-0.131,6.121-0.034,12.247-0.034,19.271c-33.398,0-67.31-0.351-101.203,0.254c-7.949-1.004-7.221-4.657-7.574-10.754
		c-0.277-4.791-1.484-6.375-7.852-6.54c-6.474-0.167-8.814,2.486-9.154,9.468c-0.119,2.432-0.308,4.861-0.46,7.221
		c-37.181,0-73.793,0-110.178,0c0-6.179,0.107-11.747-0.032-17.308c-0.127-5.131-2.735-7.897-8.081-7.835
		c-8.414,0.098-16.829,0.04-25.24,0.176C145.663,17.191,137.2,17.483,127.475,17.74z"/>
	<path class="st4" d="M117.021,18c-0.088-0.088,0.688-9,9.188-9c8.413,0,17.688,0.001,44.736,0.001c5.346,0,6.157,3.032,6.284,8.163
		c0.139,5.562,0.032,11.129,0.032,17.308c36.385,0,102.344-0.326,110.761-0.326c0,0-0.077-7.689,0-9
		c0.123-2.105,0-7.363,9.031-7.363c8.969,0,8.969,6.936,8.969,7.363c0,9,0,9,0,9c1.18,0,74.328,0.302,107.727,0.302
		c0-7.062-0.033-12.75-0.033-18.896c0-4.229,2.943-6.437,6.625-6.437c15.221,0,30.189-0.016,45.486-0.016
		c4.014,0,7.227,2.381,7.219,6.833c-0.045,23.14-0.326,45.835-0.326,69.418c0,23.205,0.037,45.5,0.037,69.214
		c0.02,5.113-1.545,9-9.037,9c-13.719,5.582-36.914,16.422-58.854,23.582c-5.061,1.84,0,0,0,0
		c14.928,24.732,26.045,46.291,41.561,72c-100.891,0-200.956,0-303.062,0c4.814-8.545,54.501-72,54.501-72l-53.864-18
		c0,0,0,0-17.979-5.583c-5.125,0-9-2.878-9-9c0-29.96,0.223-56.541,0.061-81.125C116.945,52.818,117.021,40.118,117.021,18z
		 M305.869,151.146c0,0,59.218-0.429,80.882,0c0.307,0.306,34.261-28.854,29.155-23.749c-2.646-2.646-47.031-30.251-47.031-30.251
		l-45.006,27C323.869,124.146,305.869,133.146,305.869,151.146z M287.87,151.146c0-18-17.974-27-17.974-27
		s-44.986-26.027-47.041-24.857c-15.885,9.041-31.413,18.708-48.135,28.837c7.896,7.021,30.321,23.001,32.175,23.02
		c16.743,0.17,28.934,0,45.679,0C263.096,151.146,277.496,151.146,287.87,151.146z"/>
	<path class="st6" d="M259.892,287.114c5.062-1.241,5.062-1.241,11.083,16.241c2.497-3.059,4.86-5.953,7.223-8.847
		c2.768,2.489,5.535,4.977,8.442,7.591c3.861-5.257,3.675-13.194,11.487-15.981c-3.292,9.33-6.583,18.66-9.875,27.989
		c-0.766,0.292-1.532,0.583-2.298,0.874c-2.175-3.426-4.349-6.853-6.844-10.784c-1.84,3.138-3.714,6.335-5.641,9.619
		c-5.783,0.858-5.893-4.387-7.243-7.725C263.789,300.067,262.063,293.756,259.892,287.114z"/>
	<path class="st6" d="M204.009,295.894c-0.568,1.087-1.609,2.177-1.63,3.285c-0.07,3.799,0.603,7.648,0.196,11.391
		c-0.184,1.697-2.239,3.19-3.444,4.776c-0.69-0.375-1.38-0.749-2.069-1.124c0-9.036,0-18.073,0-27.616
		c10.551,0.221,8.409,13.214,16.84,15.007c0.25-5.177,0.499-10.33,0.806-16.685c2.151,1.403,3.744,1.937,3.768,2.533
		c0.323,8.174,0.5,16.357,0.332,24.531c-0.007,0.326-5.155,1.438-5.613,0.719C209.991,307.693,207.392,302.29,204.009,295.894z"/>
	<path class="st6" d="M360.846,315.63c0-10.395,0-19.323,0-28.113c11.372-2.201,22.186-0.389,21.522,5.78
		c-0.686,6.386,0.328,14.5-3.196,18.573C376.081,315.44,367.73,314.456,360.846,315.63z M366.703,290.319c0,6.97,0,13.488,0,20.034
		c7.704,0.101,9.997-1.496,10.273-7.271C377.513,291.9,376.935,291.077,366.703,290.319z"/>
	<path class="st6" d="M187.602,287.214c-2.518,2.899-3.941,5.503-6.134,6.88c-6.027,3.784-3.667,6.931,0.051,10.529
		c2.505,2.423,4.669,5.199,7.721,8.647c-9.812,2.495-9.998-9.286-16.958-9.247c-0.655,3.223-1.127,6.443-2.13,9.49
		c-0.147,0.446-2.817,0.062-4.789,0.062c0-7.91-0.1-15.294,0.074-22.673c0.041-1.729,1.006-3.438,1.545-5.156
		c0.755-0.176,1.511-0.352,2.267-0.527c0.967,3.171,1.934,6.342,2.989,9.801C178.217,295.109,178.743,284.004,187.602,287.214z"/>
	<path class="st6" d="M414.608,295.137c-1.896-0.514-3.874-0.833-5.67-1.585c-2.838-1.188-3.708-7.167-8.555-3.455
		c-4.518,3.46-6.247,8.149-4.48,13.403c2.513,7.466,6.25,8.258,12.45,3.704c-1.182-1.76-2.339-3.484-3.494-5.208
		c3.241-0.203,6.49-0.536,9.71-0.357c0.254,0.014,1.107,4.035,0.321,5.426c-3.35,5.933-9.623,8.082-16.373,6.122
		c-7.196-2.09-7.866-8.44-8.448-14.218c-0.604-6.011,2.605-10.516,8.386-12.498c6.085-2.087,12.642,0.711,16.759,6.634
		C415.012,293.783,414.811,294.46,414.608,295.137z"/>
	<path class="st6" d="M254.101,300.172c0.109,8.283-4.287,13.251-11.459,13.492c-8.747,0.294-13.604-3.201-14.526-16.012
		c-0.443-6.169,6.021-11.278,13.664-11.496C248.303,285.97,253.999,292.449,254.101,300.172z M240.861,288.949
		c-8.055,6.562-9.414,13-4.424,18.744c3.705,4.266,7.505,2.794,10.544-0.089C251.924,302.915,249.324,295.151,240.861,288.949z"/>
	<path class="st6" d="M353.74,290.502c-5.693,0-9.742,0-14.607,0c-0.252,2.485-0.524,5.175-0.805,7.929
		c4.979,0.125,9.671-4.315,13.743,2.605c-4.94,0-9.004,0-13.47,0c0,3.5,0,6.363,0,8.85c5.1,0.32,10.182,0.638,15.262,0.956
		c-0.026,0.993-0.053,1.986-0.078,2.979c-3.106,0-6.216,0.097-9.316-0.027c-3.324-0.133-6.641-0.475-10.443-0.762
		c0-8.083-0.055-16.373,0.083-24.661c0.014-0.844,1.169-2.374,1.826-2.392c5.214-0.146,10.443-0.127,15.644,0.209
		C352.228,286.229,352.737,288.419,353.74,290.502z"/>
	<path class="st6" d="M426.506,301.821c0,3.492,0,7.22,0,11.301c-2.362-0.596-3.985-1.006-5.252-1.326c0-8.167,0-15.981,0-24.525
		c6.954,0,13.317,0,19.681,0c0.173,0.576,0.344,1.152,0.516,1.727c-2.387,0.686-4.734,1.665-7.169,1.977
		c-2.696,0.345-5.469,0.079-8.354,0.079c0.359,3.279,0.6,5.478,0.798,7.273c3.999,0,7.833-0.073,11.653,0.132
		c0.321,0.018,0.543,1.901,0.928,3.362C434.921,301.821,431.057,301.821,426.506,301.821z"/>
	<path class="st6" d="M323.035,314.58c-5.401,0-10.009,0.466-14.435-0.228c-1.776-0.279-4.322-2.992-4.499-4.795
		c-0.586-5.983-0.513-12.072-0.119-18.083c0.122-1.869,2.065-3.619,3.174-5.423c0.856,0.352,1.713,0.704,2.569,1.056
		c0,7.897,0,15.794,0,23.717c4.83,0,8.843-0.041,12.845,0.136C322.748,310.968,322.838,312.965,323.035,314.58z"/>
	<path class="st6" d="M317.738,157.725c-0.44-1.181-0.571-1.389-0.592-1.606c-0.834-9.276-0.651-16.379,10.632-21.404
		c14.983-6.672,28.451-16.867,42.235-26.052c5.192-3.459,9.478-3.346,14.402-0.193c13.876,8.885,27.817,17.669,41.712,26.479
		c-5.091,12.037-23.988,23.751-36.217,23.509c-21.664-0.429-43.341-0.233-65.013-0.336
		C322.483,158.11,320.07,157.86,317.738,157.725z"/>
	<path class="st6" d="M294.573,157.899c-10.375,0-20.897,0-31.419,0c-16.745,0-33.491,0.07-50.233-0.1
		c-1.854-0.019-4.04-1.008-5.48-2.238c-7.397-6.318-14.601-12.862-22.498-19.883c16.722-10.129,32.25-19.796,48.135-28.837
		c2.055-1.17,6.448,0.093,8.918,1.603c15.633,9.548,31.054,19.445,46.495,29.305C297.18,143.297,298.278,146.985,294.573,157.899z"
		/>
	<path class="st8" d="M366.703,290.319c10.231,0.758,10.81,1.581,10.273,12.763c-0.276,5.775-2.569,7.372-10.273,7.271
		C366.703,303.808,366.703,297.29,366.703,290.319z"/>
	<path class="st8" d="M240.861,288.949c8.463,6.203,11.063,13.966,6.12,18.655c-3.04,2.883-6.839,4.354-10.544,0.089
		C231.447,301.949,232.806,295.51,240.861,288.949z"/>
	<g id="Layer_4">
	</g>
	<path class="st3" d="M198,132.996"/>
</g>
<g id="Layer_5">
</g>
<g id="Layer_6">
	<path class="st4" d="M455.188,597.121c-0.641-26.777-2.191-53.533-2.988-80.309c-0.77-25.914-1.047-51.842-1.623-77.762
		c-0.705-31.645-1.465-63.288-2.266-94.93c-0.598-23.636-1.367-47.268-1.879-70.906c-0.076-3.475-0.74-4.702-4.627-4.702
		c-54.805,0-252.804-0.508-291.401-0.508c-8.425-0.245-7.612,4.218-7.732,8.831c-0.508,19.545-0.623,39.1-1.041,58.647
		c-0.62,28.935-1.453,57.866-2.049,86.801c-0.541,26.232-0.801,52.471-1.337,78.703c-0.531,25.973-1.334,51.939-1.864,77.912
		c-0.446,21.9-0.382,43.816-1.07,65.709c-0.793,25.281-0.489,50.227,6.136,75.068c8.204,30.762,24.737,55.105,50.615,73.23
		c15.286,10.703,31.928,18.707,50.193,22.939C254.105,818.596,279,825.996,279,825.996C279.12,837,277.943,837,297.604,837
		c18.062,0,17.517,0,17.396-11.004c0,0,59.262-15.385,83.688-32.789c21.285-15.168,36.053-35.492,45.848-59.9
		c6.582-16.404,11.312-33.066,11.479-50.604C456.285,654.18,455.867,625.641,455.188,597.121z M418.075,308.474h10.641v6.651
		h-10.641V308.474z M332.565,308.474h10.643v6.651h-10.643V308.474z M167.242,327.013h-7.233V297h7.233V327.013z M169.32,307.434
		L177.551,297h8.896l-17.127,20.743V307.434z M179.172,327.013l-4.988-11.598l5.403-6.568l7.774,18.167H179.172z M196.673,327.013
		h-7.232v-21.284h5.32l1.912,3.617V327.013z M220.285,327.138h-11.39l-12.222-23.486h-7.232V297h11.722l11.889,23.362h7.233V327.138
		z M220.285,318.284h-5.404l-1.83-3.409V297h7.233V318.284z M236.165,303.651h-4.489v16.711h4.489v6.651h-9.229l-2.495-3.118
		v-23.861l2.495-3.035h9.229V303.651z M250.007,323.937l-2.494,3.076h-9.27v-6.651h5.154v-16.711h-5.154V297h9.27l2.494,2.994
		V323.937z M252.086,297h7.233l4.365,17.21l-3.243,10.019L252.086,297z M268.09,327.138h-6.276l7.441-22.614l3.117,9.52
		L268.09,327.138z M278.815,327.138l-8.521-25.773l1.414-4.323h3.492l9.977,30.096H278.815z M286.423,324.477l-3.243-9.769
		L287.753,297h7.191L286.423,324.477z M304.257,327.013h-7.234V297h7.234V327.013z M320.344,327.013h-14.009v-6.651h14.009V327.013z
		 M330.487,327.013h-7.233V297h7.233V327.013z M346.492,327.013h-13.927v-6.651h13.927V327.013z M346.492,303.651h-13.927V297
		h13.927V303.651z M356.843,327.013h-7.233V297h7.233V327.013z M374.634,323.937l-2.495,3.076H358.92v-6.651h8.481v-16.711h-8.481
		V297h13.219l2.495,2.994V323.937z M390.804,303.651h-4.778v16.711h4.778v6.651h-9.519l-2.494-3.118v-23.861l2.494-3.035h9.519
		V303.651z M405.022,323.937l-2.495,3.076h-9.645v-6.651h5.322v-4.947h-5.82v-6.65h12.638V323.937z M405.022,306.395h-6.609v-2.743
		h-5.53V297h9.645l2.495,2.994V306.395z M415.995,327.013h-7.232V297h7.232V327.013z M432,327.013h-13.925v-6.651H432V327.013z
		 M432,303.651h-13.925V297H432V303.651z"/>
</g>
</svg>
