<?xml version="1.0" encoding="UTF-8" standalone="no"?>
<svg width="91px" height="204px" viewBox="0 0 91 204" version="1.1" xmlns="http://www.w3.org/2000/svg" xmlns:xlink="http://www.w3.org/1999/xlink" xmlns:sketch="http://www.bohemiancoding.com/sketch/ns">
    <!-- Generator: Sketch 3.0.4 (8054) - http://www.bohemiancoding.com/sketch -->
    <title>Slice 2</title>
    <desc>Created with Sketch.</desc>
    <defs></defs>
    <g id="Page-1" stroke="none" stroke-width="1" fill="none" fill-rule="evenodd" sketch:type="MSPage">
        <g id="knowledge_bomb" sketch:type="MSLayerGroup" transform="translate(-3.000000, -4.000000)">
            <g id="Layer_9"></g>
            <g id="Layer_7"></g>
            <g id="Layer_3">
                <g id="Layer_4"></g>
            </g>
            <g id="Layer_5"></g>
            <g id="Layer_6-2" transform="translate(6.000000, 6.000000)" fill="#292929" sketch:type="MSShapeGroup">
                <g id="Group">
                    <path d="M0.00465753425,1.86236471 C-0.0163013699,1.8414 0.17,-0.290011765 2.20184932,-0.290011765 L12.8978767,-0.290011765 C14.1763699,-0.290011765 14.3696575,0.4356 14.3999315,1.66203529 C14.4325342,2.99329412 14.4069178,4.32455294 14.4069178,5.8014 C23.1060274,5.8014 38.875274,5.72336471 40.8873288,5.72336471 C40.8873288,5.72336471 40.8686986,3.88429412 40.8873288,3.57098824 C40.9164384,3.06783529 40.8873288,1.80995294 43.0460959,1.80995294 C45.189726,1.80995294 45.189726,3.46849412 45.189726,3.57098824 L45.189726,5.72336471 C45.4715068,5.72336471 62.9593836,5.79557647 70.9435616,5.79557647 C70.9435616,4.10675294 70.935411,2.74637647 70.935411,1.27651765 C70.935411,0.264388235 71.6386986,-0.263223529 72.520137,-0.263223529 C76.1576712,-0.263223529 79.7369863,-0.266717647 83.3943151,-0.266717647 C84.3537671,-0.266717647 85.1210959,0.301658824 85.1187671,1.36736471 C85.1082877,6.89971765 85.0407534,12.3272471 85.0407534,17.9667529 C85.0407534,23.5165765 85.0500685,28.8474353 85.0500685,34.5183882 C85.054726,35.7413294 84.6821233,36.6707647 82.890137,36.6707647 C79.6112329,38.0055176 74.065274,40.5981529 68.8208904,42.3102706 C67.6099315,42.7505294 68.8208904,42.3102706 68.8208904,42.3102706 C72.3885616,48.2246471 75.0468493,53.3796353 78.7565753,59.5281176 L6.30280822,59.5281176 C7.45321918,57.4840588 19.3310959,42.3102706 19.3310959,42.3102706 L6.4530137,38.0055176 C6.4530137,38.0055176 6.4530137,38.0055176 2.15527397,36.6707647 C0.930342466,36.6707647 0.00349315068,35.9824235 0.00349315068,34.5183882 C0.00349315068,27.3542824 0.0570547945,20.9984824 0.018630137,15.1178824 C-0.0139726027,10.1876824 0.00465753425,7.15129412 0.00465753425,1.86236471 L0.00465753425,1.86236471 Z M45.1524658,33.7019294 C45.1524658,33.7019294 59.3090411,33.5994353 64.4882192,33.7019294 C64.5615753,33.7741412 72.6784932,26.8022118 71.4582192,28.0228235 C70.8259589,27.3903882 60.2149315,20.7888353 60.2149315,20.7888353 L49.454863,27.2459647 C49.4560274,27.2459647 45.1524658,29.3971765 45.1524658,33.7019294 L45.1524658,33.7019294 Z M40.8500685,33.7019294 C40.8500685,29.3971765 36.5534932,27.2459647 36.5534932,27.2459647 C36.5534932,27.2459647 25.7992466,21.0217765 25.3078767,21.3013059 C21.5096575,23.463 17.7976027,25.7749412 13.800274,28.1975294 C15.6877397,29.8758706 21.0485616,33.6984353 21.4910274,33.7019294 C25.4941781,33.7426941 28.4074658,33.7019294 32.4117808,33.7019294 L40.8500685,33.7019294 L40.8500685,33.7019294 Z" id="Shape"></path>
                    <path d="M80.850137,140.350553 C80.6987671,133.947 80.3273288,127.549271 80.1375342,121.146882 C79.9523973,114.949482 79.8860274,108.748588 79.7486301,102.551188 C79.5797945,94.9840941 79.3981507,87.417 79.2060274,79.8499059 C79.0639726,74.1975882 78.8788356,68.5464353 78.7577397,62.8941176 C78.7391096,62.0636824 78.5807534,61.7701765 77.6515753,61.7701765 C64.5487671,61.7701765 17.2142466,61.6490471 7.98650685,61.6490471 C5.97212329,61.5896471 6.16657534,62.6588471 6.13746575,63.7594941 C6.01636986,68.4334588 5.98842466,73.1097529 5.88828767,77.7848824 C5.74041096,84.7044 5.54130137,91.6227529 5.39924658,98.5422706 C5.27,104.815376 5.20712329,111.089647 5.0790411,117.362753 C4.95212329,123.574129 4.76116438,129.784341 4.63308219,135.995718 C4.52712329,141.232235 4.54226027,146.474576 4.37691781,151.708765 C4.18828767,157.754753 4.26047945,163.719212 5.8440411,169.661541 C7.80719178,177.017824 11.7579452,182.837859 17.9454795,187.172894 C21.6004795,189.732918 25.5791781,191.646529 29.9456164,192.658659 C32.779726,193.315553 38.7308904,195.084741 38.7308904,195.084741 C38.7588356,197.716976 38.4782192,197.716976 43.1776712,197.716976 C47.4952055,197.716976 47.3647945,197.716976 47.3368493,195.084741 C47.3368493,195.084741 61.5039041,191.405435 67.3432877,187.245106 C72.4328082,183.617047 75.9632192,178.756729 78.3047945,172.920388 C79.8790411,168.996494 81.0096575,165.012035 81.0480822,160.819094 C81.1132877,153.996247 81.0119863,147.171071 80.850137,140.350553 L80.850137,140.350553 Z M71.9775342,71.3242588 L74.5217123,71.3242588 L74.5217123,72.9152471 L71.9775342,72.9152471 L71.9775342,71.3242588 L71.9775342,71.3242588 Z M51.5356164,71.3242588 L54.0797945,71.3242588 L54.0797945,72.9152471 L51.5356164,72.9152471 L51.5356164,71.3242588 L51.5356164,71.3242588 Z M12.0106164,75.7582941 L10.2815068,75.7582941 L10.2815068,68.5802118 L12.0106164,68.5802118 L12.0106164,75.7582941 L12.0106164,75.7582941 Z M12.5078082,71.0761765 L14.4744521,68.5802118 L16.6017808,68.5802118 L12.5066438,73.5406941 L12.5066438,71.0761765 L12.5078082,71.0761765 Z M14.8645205,75.7582941 L13.6721918,72.9839647 L14.9634932,71.4139412 L16.8218493,75.7582941 L14.8645205,75.7582941 L14.8645205,75.7582941 Z M19.0469863,75.7582941 L17.3178767,75.7582941 L17.3178767,70.6685294 L18.5905479,70.6685294 L19.0481507,71.5327412 L19.0481507,75.7582941 L19.0469863,75.7582941 Z M24.6930822,75.7874118 L21.969589,75.7874118 L19.0469863,70.1712 L17.3178767,70.1712 L17.3178767,68.5802118 L20.1205479,68.5802118 L22.9628082,74.1673059 L24.6919178,74.1673059 L24.6919178,75.7874118 L24.6930822,75.7874118 Z M24.6930822,73.6699765 L23.4006164,73.6699765 L22.9639726,72.8558471 L22.9639726,68.5813765 L24.6930822,68.5813765 L24.6930822,73.6699765 L24.6930822,73.6699765 Z M28.4889726,70.1723647 L27.415411,70.1723647 L27.415411,74.1684706 L28.4889726,74.1684706 L28.4889726,75.7582941 L26.2824658,75.7582941 L25.685137,75.0128824 L25.685137,69.3069882 L26.2824658,68.5802118 L28.4889726,68.5802118 L28.4889726,70.1723647 L28.4889726,70.1723647 Z M31.7993151,75.0233647 L31.2019863,75.7582941 L28.9861644,75.7582941 L28.9861644,74.1684706 L30.2192466,74.1684706 L30.2192466,70.1723647 L28.9861644,70.1723647 L28.9861644,68.5813765 L31.2019863,68.5813765 L31.7993151,69.2976706 L31.7993151,75.0233647 L31.7993151,75.0233647 Z M32.2953425,68.5802118 L34.0232877,68.5802118 L35.0665753,72.6962824 L34.2910959,75.0920824 L32.2953425,68.5802118 L32.2953425,68.5802118 Z M36.1203425,75.7874118 L34.6194521,75.7874118 L36.3997945,70.3796824 L37.1438356,72.6566824 L36.1203425,75.7874118 L36.1203425,75.7874118 Z M38.6854795,75.7874118 L36.6478082,69.6237882 L36.9854795,68.5895294 L37.8215068,68.5895294 L40.2061644,75.7874118 L38.6854795,75.7874118 L38.6854795,75.7874118 Z M40.5042466,75.1514824 L39.7287671,72.8162471 L40.8209589,68.5813765 L42.5407534,68.5813765 L40.5042466,75.1514824 L40.5042466,75.1514824 Z M44.7682192,75.7582941 L43.0391096,75.7582941 L43.0391096,68.5802118 L44.7682192,68.5802118 L44.7682192,75.7582941 L44.7682192,75.7582941 Z M48.6130137,75.7582941 L45.2642466,75.7582941 L45.2642466,74.1684706 L48.6130137,74.1684706 L48.6130137,75.7582941 L48.6130137,75.7582941 Z M51.0384247,75.7582941 L49.3093151,75.7582941 L49.3093151,68.5802118 L51.0384247,68.5802118 L51.0384247,75.7582941 L51.0384247,75.7582941 Z M54.864589,75.7582941 L51.5356164,75.7582941 L51.5356164,74.1684706 L54.864589,74.1684706 L54.864589,75.7582941 L54.864589,75.7582941 Z M54.864589,70.1723647 L51.5356164,70.1723647 L51.5356164,68.5813765 L54.864589,68.5813765 L54.864589,70.1723647 L54.864589,70.1723647 Z M57.3389041,75.7582941 L55.6097945,75.7582941 L55.6097945,68.5802118 L57.3389041,68.5802118 L57.3389041,75.7582941 L57.3389041,75.7582941 Z M61.5912329,75.0233647 L60.9950685,75.7582941 L57.8349315,75.7582941 L57.8349315,74.1684706 L59.8621233,74.1684706 L59.8621233,70.1723647 L57.8349315,70.1723647 L57.8349315,68.5813765 L60.9950685,68.5813765 L61.5912329,69.2976706 L61.5912329,75.0233647 L61.5912329,75.0233647 Z M65.4593151,70.1723647 L64.3170548,70.1723647 L64.3170548,74.1684706 L65.4593151,74.1684706 L65.4593151,75.7582941 L63.1829452,75.7582941 L62.5867808,75.0128824 L62.5867808,69.3069882 L63.1829452,68.5802118 L65.4593151,68.5802118 L65.4593151,70.1723647 L65.4593151,70.1723647 Z M68.8581507,75.0233647 L68.2608219,75.7582941 L65.9553425,75.7582941 L65.9553425,74.1684706 L67.2280137,74.1684706 L67.2280137,72.9839647 L65.8365753,72.9839647 L65.8365753,71.3941412 L68.8593151,71.3941412 L68.8593151,75.0233647 L68.8581507,75.0233647 Z M68.8581507,70.8280941 L67.2780822,70.8280941 L67.2780822,70.1723647 L65.9553425,70.1723647 L65.9553425,68.5813765 L68.2608219,68.5813765 L68.8581507,69.2976706 L68.8581507,70.8280941 L68.8581507,70.8280941 Z M71.4815068,75.7582941 L69.7523973,75.7582941 L69.7523973,68.5802118 L71.4815068,68.5802118 L71.4815068,75.7582941 L71.4815068,75.7582941 Z M75.3076712,75.7582941 L71.9786986,75.7582941 L71.9786986,74.1684706 L75.3076712,74.1684706 L75.3076712,75.7582941 L75.3076712,75.7582941 Z M75.3076712,70.1723647 L71.9786986,70.1723647 L71.9786986,68.5813765 L75.3076712,68.5813765 L75.3076712,70.1723647 L75.3076712,70.1723647 Z" id="Shape"></path>
                </g>
            </g>
        </g>
    </g>
</svg>