<?xml version="1.0" encoding="UTF-8" standalone="no"?>
<svg width="79px" height="176px" viewBox="0 0 79 176" version="1.1" xmlns="http://www.w3.org/2000/svg" xmlns:xlink="http://www.w3.org/1999/xlink" xmlns:sketch="http://www.bohemiancoding.com/sketch/ns">
    <!-- Generator: Sketch 3.0.4 (8054) - http://www.bohemiancoding.com/sketch -->
    <title>Slice 2</title>
    <desc>Created with Sketch.</desc>
    <defs></defs>
    <g id="Page-1" stroke="none" stroke-width="1" fill="none" fill-rule="evenodd" sketch:type="MSPage">
        <g id="knowledge_bomb" sketch:type="MSLayerGroup" transform="translate(-6.000000, -9.000000)">
            <g id="Layer_9"></g>
            <g id="Layer_7"></g>
            <g id="Layer_3">
                <g id="Layer_4"></g>
            </g>
            <g id="Layer_5"></g>
            <g id="Layer_6" transform="translate(9.000000, 12.000000)" fill="#292929" sketch:type="MSShapeGroup">
                <g id="Group">
                    <path d="M0.004,1.599 C-0.014,1.581 0.146,-0.249 1.891,-0.249 L11.077,-0.249 C12.175,-0.249 12.341,0.374 12.367,1.427 C12.395,2.57 12.373,3.713 12.373,4.981 C19.844,4.981 33.387,4.914 35.115,4.914 C35.115,4.914 35.099,3.335 35.115,3.066 C35.14,2.634 35.115,1.554 36.969,1.554 C38.81,1.554 38.81,2.978 38.81,3.066 L38.81,4.914 C39.052,4.914 54.071,4.976 60.928,4.976 C60.928,3.526 60.921,2.358 60.921,1.096 C60.921,0.227 61.525,-0.226 62.282,-0.226 C65.406,-0.226 68.48,-0.229 71.621,-0.229 C72.445,-0.229 73.104,0.259 73.102,1.174 C73.093,5.924 73.035,10.584 73.035,15.426 C73.035,20.191 73.043,24.768 73.043,29.637 C73.047,30.687 72.727,31.485 71.188,31.485 C68.372,32.631 63.609,34.857 59.105,36.327 C58.065,36.705 59.105,36.327 59.105,36.327 C62.169,41.405 64.452,45.831 67.638,51.11 L5.413,51.11 C6.401,49.355 16.602,36.327 16.602,36.327 L5.542,32.631 C5.542,32.631 5.542,32.631 1.851,31.485 C0.799,31.485 0.003,30.894 0.003,29.637 C0.003,23.486 0.049,18.029 0.016,12.98 C-0.012,8.747 0.004,6.14 0.004,1.599 L0.004,1.599 Z M38.778,28.936 C38.778,28.936 50.936,28.848 55.384,28.936 C55.447,28.998 62.418,23.012 61.37,24.06 C60.827,23.517 51.714,17.849 51.714,17.849 L42.473,23.393 C42.474,23.393 38.778,25.24 38.778,28.936 L38.778,28.936 Z M35.083,28.936 C35.083,25.24 31.393,23.393 31.393,23.393 C31.393,23.393 22.157,18.049 21.735,18.289 C18.473,20.145 15.285,22.13 11.852,24.21 C13.473,25.651 18.077,28.933 18.457,28.936 C21.895,28.971 24.397,28.936 27.836,28.936 L35.083,28.936 L35.083,28.936 Z" id="Shape"></path>
                    <path d="M69.436,120.503 C69.306,115.005 68.987,109.512 68.824,104.015 C68.665,98.694 68.608,93.37 68.49,88.049 C68.345,81.552 68.189,75.055 68.024,68.558 C67.902,63.705 67.743,58.853 67.639,54 C67.623,53.287 67.487,53.035 66.689,53.035 C55.436,53.035 14.784,52.931 6.859,52.931 C5.129,52.88 5.296,53.798 5.271,54.743 C5.167,58.756 5.143,62.771 5.057,66.785 C4.93,72.726 4.759,78.666 4.637,84.607 C4.526,89.993 4.472,95.38 4.362,100.766 C4.253,106.099 4.089,111.431 3.979,116.764 C3.888,121.26 3.901,125.761 3.759,130.255 C3.597,135.446 3.659,140.567 5.019,145.669 C6.705,151.985 10.098,156.982 15.412,160.704 C18.551,162.902 21.968,164.545 25.718,165.414 C28.152,165.978 33.263,167.497 33.263,167.497 C33.287,169.757 33.046,169.757 37.082,169.757 C40.79,169.757 40.678,169.757 40.654,167.497 C40.654,167.497 52.821,164.338 57.836,160.766 C62.207,157.651 65.239,153.478 67.25,148.467 C68.602,145.098 69.573,141.677 69.606,138.077 C69.662,132.219 69.575,126.359 69.436,120.503 L69.436,120.503 Z M61.816,61.238 L64.001,61.238 L64.001,62.604 L61.816,62.604 L61.816,61.238 L61.816,61.238 Z M44.26,61.238 L46.445,61.238 L46.445,62.604 L44.26,62.604 L44.26,61.238 L44.26,61.238 Z M10.315,65.045 L8.83,65.045 L8.83,58.882 L10.315,58.882 L10.315,65.045 L10.315,65.045 Z M10.742,61.025 L12.431,58.882 L14.258,58.882 L10.741,63.141 L10.741,61.025 L10.742,61.025 Z M12.766,65.045 L11.742,62.663 L12.851,61.315 L14.447,65.045 L12.766,65.045 L12.766,65.045 Z M16.358,65.045 L14.873,65.045 L14.873,60.675 L15.966,60.675 L16.359,61.417 L16.359,65.045 L16.358,65.045 Z M21.207,65.07 L18.868,65.07 L16.358,60.248 L14.873,60.248 L14.873,58.882 L17.28,58.882 L19.721,63.679 L21.206,63.679 L21.206,65.07 L21.207,65.07 Z M21.207,63.252 L20.097,63.252 L19.722,62.553 L19.722,58.883 L21.207,58.883 L21.207,63.252 L21.207,63.252 Z M24.467,60.249 L23.545,60.249 L23.545,63.68 L24.467,63.68 L24.467,65.045 L22.572,65.045 L22.059,64.405 L22.059,59.506 L22.572,58.882 L24.467,58.882 L24.467,60.249 L24.467,60.249 Z M27.31,64.414 L26.797,65.045 L24.894,65.045 L24.894,63.68 L25.953,63.68 L25.953,60.249 L24.894,60.249 L24.894,58.883 L26.797,58.883 L27.31,59.498 L27.31,64.414 L27.31,64.414 Z M27.736,58.882 L29.22,58.882 L30.116,62.416 L29.45,64.473 L27.736,58.882 L27.736,58.882 Z M31.021,65.07 L29.732,65.07 L31.261,60.427 L31.9,62.382 L31.021,65.07 L31.021,65.07 Z M33.224,65.07 L31.474,59.778 L31.764,58.89 L32.482,58.89 L34.53,65.07 L33.224,65.07 L33.224,65.07 Z M34.786,64.524 L34.12,62.519 L35.058,58.883 L36.535,58.883 L34.786,64.524 L34.786,64.524 Z M38.448,65.045 L36.963,65.045 L36.963,58.882 L38.448,58.882 L38.448,65.045 L38.448,65.045 Z M41.75,65.045 L38.874,65.045 L38.874,63.68 L41.75,63.68 L41.75,65.045 L41.75,65.045 Z M43.833,65.045 L42.348,65.045 L42.348,58.882 L43.833,58.882 L43.833,65.045 L43.833,65.045 Z M47.119,65.045 L44.26,65.045 L44.26,63.68 L47.119,63.68 L47.119,65.045 L47.119,65.045 Z M47.119,60.249 L44.26,60.249 L44.26,58.883 L47.119,58.883 L47.119,60.249 L47.119,60.249 Z M49.244,65.045 L47.759,65.045 L47.759,58.882 L49.244,58.882 L49.244,65.045 L49.244,65.045 Z M52.896,64.414 L52.384,65.045 L49.67,65.045 L49.67,63.68 L51.411,63.68 L51.411,60.249 L49.67,60.249 L49.67,58.883 L52.384,58.883 L52.896,59.498 L52.896,64.414 L52.896,64.414 Z M56.218,60.249 L55.237,60.249 L55.237,63.68 L56.218,63.68 L56.218,65.045 L54.263,65.045 L53.751,64.405 L53.751,59.506 L54.263,58.882 L56.218,58.882 L56.218,60.249 L56.218,60.249 Z M59.137,64.414 L58.624,65.045 L56.644,65.045 L56.644,63.68 L57.737,63.68 L57.737,62.663 L56.542,62.663 L56.542,61.298 L59.138,61.298 L59.138,64.414 L59.137,64.414 Z M59.137,60.812 L57.78,60.812 L57.78,60.249 L56.644,60.249 L56.644,58.883 L58.624,58.883 L59.137,59.498 L59.137,60.812 L59.137,60.812 Z M61.39,65.045 L59.905,65.045 L59.905,58.882 L61.39,58.882 L61.39,65.045 L61.39,65.045 Z M64.676,65.045 L61.817,65.045 L61.817,63.68 L64.676,63.68 L64.676,65.045 L64.676,65.045 Z M64.676,60.249 L61.817,60.249 L61.817,58.883 L64.676,58.883 L64.676,60.249 L64.676,60.249 Z" id="Shape"></path>
                </g>
            </g>
        </g>
    </g>
</svg>