<?xml version="1.0" encoding="UTF-8" standalone="no"?>
<svg width="84px" height="191px" viewBox="0 0 84 191" version="1.1" xmlns="http://www.w3.org/2000/svg" xmlns:xlink="http://www.w3.org/1999/xlink" xmlns:sketch="http://www.bohemiancoding.com/sketch/ns">
    <!-- Generator: Sketch 3.0.4 (8054) - http://www.bohemiancoding.com/sketch -->
    <title>Slice 2</title>
    <desc>Created with Sketch.</desc>
    <defs></defs>
    <g id="Page-1" stroke="none" stroke-width="1" fill="none" fill-rule="evenodd" sketch:type="MSPage">
        <g id="knowledge_bomb" sketch:type="MSLayerGroup" transform="translate(-6.000000, -9.000000)">
            <g id="Layer_9"></g>
            <g id="Layer_7"></g>
            <g id="Layer_3">
                <g id="Layer_4"></g>
            </g>
            <g id="Layer_5"></g>
            <g id="Layer_6-2" transform="translate(9.000000, 12.000000)" fill="#292929" sketch:type="MSShapeGroup">
                <g id="Group">
                    <path d="M0.00432876712,1.74008824 C-0.0151506849,1.7205 0.158,-0.270970588 2.04642466,-0.270970588 L11.9874384,-0.270970588 C13.1756849,-0.270970588 13.3553288,0.407 13.3834658,1.55291176 C13.4137671,2.79676471 13.3899589,4.04061765 13.3899589,5.4205 C21.4750137,5.4205 36.131137,5.34758824 38.0011644,5.34758824 C38.0011644,5.34758824 37.9838493,3.62926471 38.0011644,3.33652941 C38.0282192,2.86641176 38.0011644,1.69111765 40.0075479,1.69111765 C41.999863,1.69111765 41.999863,3.24076471 41.999863,3.33652941 L41.999863,5.34758824 C42.2617534,5.34758824 58.5151918,5.41505882 65.9357808,5.41505882 C65.9357808,3.83711765 65.9282055,2.56605882 65.9282055,1.19270588 C65.9282055,0.247029412 66.5818493,-0.245941176 67.4010685,-0.245941176 C70.7818356,-0.245941176 74.1084932,-0.249205882 77.5076575,-0.249205882 C78.3993836,-0.249205882 79.1125479,0.281852941 79.1103836,1.27758824 C79.1006438,6.44670588 79.0378767,11.5178824 79.0378767,16.7871176 C79.0378767,21.9725588 79.0465342,26.9534118 79.0465342,32.2520294 C79.050863,33.3946765 78.7045616,34.2630882 77.0390685,34.2630882 C73.9916164,35.5102059 68.837137,37.9326176 63.9629452,39.5323235 C62.8374658,39.9436765 63.9629452,39.5323235 63.9629452,39.5323235 C67.2787808,45.0583824 69.7494247,49.8749118 73.1972877,55.6197059 L5.85790411,55.6197059 C6.92710959,53.7098529 17.9665479,39.5323235 17.9665479,39.5323235 L5.99750685,35.5102059 C5.99750685,35.5102059 5.99750685,35.5102059 2.00313699,34.2630882 C0.864671233,34.2630882 0.00324657534,33.6199412 0.00324657534,32.2520294 C0.00324657534,25.5582941 0.0530273973,19.6197941 0.0173150685,14.1252941 C-0.0129863014,9.51879412 0.00432876712,6.68176471 0.00432876712,1.74008824 L0.00432876712,1.74008824 Z M41.9652329,31.4891765 C41.9652329,31.4891765 55.1225205,31.3934118 59.9361096,31.4891765 C60.0042877,31.5566471 67.5482466,25.0424706 66.4141096,26.1829412 C65.8264795,25.5920294 55.9644658,19.4239118 55.9644658,19.4239118 L45.9639315,25.4570882 C45.9650137,25.4570882 41.9652329,27.4670588 41.9652329,31.4891765 L41.9652329,31.4891765 Z M37.9665342,31.4891765 C37.9665342,27.4670588 33.9732466,25.4570882 33.9732466,25.4570882 C33.9732466,25.4570882 23.9781233,19.6415588 23.5214384,19.9027353 C19.9913288,21.9225 16.5413014,24.0826471 12.826137,26.3461765 C14.5803699,27.9143235 19.5627808,31.4859118 19.9740137,31.4891765 C23.694589,31.5272647 26.4022329,31.4891765 30.1238904,31.4891765 L37.9665342,31.4891765 L37.9665342,31.4891765 Z" id="Shape"></path>
                    <path d="M75.1430685,131.135618 C75.0023836,125.1525 74.6571644,119.174824 74.4807671,113.192794 C74.3086986,107.402294 74.2470137,101.608529 74.1193151,95.8180294 C73.9623973,88.7477647 73.7935753,81.6775 73.6150137,74.6072353 C73.4829863,69.3260294 73.3109178,64.0459118 73.1983699,58.7647059 C73.1810548,57.9887941 73.0338767,57.7145588 72.1702877,57.7145588 C59.9923836,57.7145588 15.9991233,57.6013824 7.42275342,57.6013824 C5.55056164,57.5458824 5.73128767,58.5448824 5.70423288,59.5732647 C5.59168493,63.9403529 5.56571233,68.3096176 5.47264384,72.6777941 C5.33520548,79.143 5.15015068,85.6071176 5.01812329,92.0723235 C4.898,97.9335588 4.83956164,103.795882 4.72052055,109.657118 C4.60256164,115.460676 4.42508219,121.263147 4.3060411,127.066706 C4.20756164,131.959412 4.22163014,136.857559 4.0679589,141.748088 C3.89264384,147.397118 3.95973973,152.969971 5.43152055,158.522147 C7.25609589,165.395441 10.9279726,170.833353 16.6787397,174.883765 C20.0757397,177.275706 23.773589,179.063676 27.8318082,180.009353 C30.465863,180.623118 35.9969452,182.276147 35.9969452,182.276147 C36.0229178,184.735559 35.7621096,184.735559 40.1298356,184.735559 C44.1426027,184.735559 44.0213973,184.735559 43.9954247,182.276147 C43.9954247,182.276147 57.1624521,178.838412 62.5896438,174.951235 C67.3199041,171.561382 70.6011096,167.020176 72.7773973,161.567029 C74.2405205,157.900765 75.2913288,154.177912 75.3270411,150.260265 C75.3876438,143.885382 75.2934932,137.508324 75.1430685,131.135618 L75.1430685,131.135618 Z M66.8967671,66.6413529 L69.2613562,66.6413529 L69.2613562,68.1278824 L66.8967671,68.1278824 L66.8967671,66.6413529 L66.8967671,66.6413529 Z M47.8978082,66.6413529 L50.2623973,66.6413529 L50.2623973,68.1278824 L47.8978082,68.1278824 L47.8978082,66.6413529 L47.8978082,66.6413529 Z M11.1628082,70.7842647 L9.55575342,70.7842647 L9.55575342,64.0774706 L11.1628082,64.0774706 L11.1628082,70.7842647 L11.1628082,70.7842647 Z M11.6249041,66.4095588 L13.452726,64.0774706 L15.4298904,64.0774706 L11.6238219,68.7122647 L11.6238219,66.4095588 L11.6249041,66.4095588 Z M13.8152603,70.7842647 L12.7070959,68.1920882 L13.9072466,66.7251471 L15.6344247,70.7842647 L13.8152603,70.7842647 L13.8152603,70.7842647 Z M17.7024932,70.7842647 L16.0954384,70.7842647 L16.0954384,66.0286765 L17.278274,66.0286765 L17.7035753,66.8361471 L17.7035753,70.7842647 L17.7024932,70.7842647 Z M22.9500411,70.8114706 L20.4187945,70.8114706 L17.7024932,65.564 L16.0954384,65.564 L16.0954384,64.0774706 L18.700274,64.0774706 L21.3419041,69.2977353 L22.9489589,69.2977353 L22.9489589,70.8114706 L22.9500411,70.8114706 Z M22.9500411,68.8330588 L21.7488082,68.8330588 L21.3429863,68.0723824 L21.3429863,64.0785588 L22.9500411,64.0785588 L22.9500411,68.8330588 L22.9500411,68.8330588 Z M26.4779863,65.5650882 L25.4802055,65.5650882 L25.4802055,69.2988235 L26.4779863,69.2988235 L26.4779863,70.7842647 L24.4272329,70.7842647 L23.8720685,70.0877941 L23.8720685,64.7565294 L24.4272329,64.0774706 L26.4779863,64.0774706 L26.4779863,65.5650882 L26.4779863,65.5650882 Z M29.5546575,70.0975882 L28.9994932,70.7842647 L26.9400822,70.7842647 L26.9400822,69.2988235 L28.0861233,69.2988235 L28.0861233,65.5650882 L26.9400822,65.5650882 L26.9400822,64.0785588 L28.9994932,64.0785588 L29.5546575,64.7478235 L29.5546575,70.0975882 L29.5546575,70.0975882 Z M30.0156712,64.0774706 L31.6216438,64.0774706 L32.5912877,67.9232941 L31.8705479,70.1617941 L30.0156712,64.0774706 L30.0156712,64.0774706 Z M33.5706712,70.8114706 L32.175726,70.8114706 L33.8303973,65.7587941 L34.5219178,67.8862941 L33.5706712,70.8114706 L33.5706712,70.8114706 Z M35.9547397,70.8114706 L34.0609041,65.0525294 L34.3747397,64.0861765 L35.1517534,64.0861765 L37.3680822,70.8114706 L35.9547397,70.8114706 L35.9547397,70.8114706 Z M37.6451233,70.2172941 L36.9243836,68.0353824 L37.9394795,64.0785588 L39.5378767,64.0785588 L37.6451233,70.2172941 L37.6451233,70.2172941 Z M41.6081096,70.7842647 L40.0010548,70.7842647 L40.0010548,64.0774706 L41.6081096,64.0774706 L41.6081096,70.7842647 L41.6081096,70.7842647 Z M45.1815068,70.7842647 L42.0691233,70.7842647 L42.0691233,69.2988235 L45.1815068,69.2988235 L45.1815068,70.7842647 L45.1815068,70.7842647 Z M47.4357123,70.7842647 L45.8286575,70.7842647 L45.8286575,64.0774706 L47.4357123,64.0774706 L47.4357123,70.7842647 L47.4357123,70.7842647 Z M50.9917945,70.7842647 L47.8978082,70.7842647 L47.8978082,69.2988235 L50.9917945,69.2988235 L50.9917945,70.7842647 L50.9917945,70.7842647 Z M50.9917945,65.5650882 L47.8978082,65.5650882 L47.8978082,64.0785588 L50.9917945,64.0785588 L50.9917945,65.5650882 L50.9917945,65.5650882 Z M53.2914521,70.7842647 L51.6843973,70.7842647 L51.6843973,64.0774706 L53.2914521,64.0774706 L53.2914521,70.7842647 L53.2914521,70.7842647 Z M57.2436164,70.0975882 L56.6895342,70.7842647 L53.7524658,70.7842647 L53.7524658,69.2988235 L55.6365616,69.2988235 L55.6365616,65.5650882 L53.7524658,65.5650882 L53.7524658,64.0785588 L56.6895342,64.0785588 L57.2436164,64.7478235 L57.2436164,70.0975882 L57.2436164,70.0975882 Z M60.8386575,65.5650882 L59.7770274,65.5650882 L59.7770274,69.2988235 L60.8386575,69.2988235 L60.8386575,70.7842647 L58.7229726,70.7842647 L58.1688904,70.0877941 L58.1688904,64.7565294 L58.7229726,64.0774706 L60.8386575,64.0774706 L60.8386575,65.5650882 L60.8386575,65.5650882 Z M63.9975753,70.0975882 L63.442411,70.7842647 L61.2996712,70.7842647 L61.2996712,69.2988235 L62.4825068,69.2988235 L62.4825068,68.1920882 L61.1892877,68.1920882 L61.1892877,66.7066471 L63.9986575,66.7066471 L63.9986575,70.0975882 L63.9975753,70.0975882 Z M63.9975753,66.1777647 L62.5290411,66.1777647 L62.5290411,65.5650882 L61.2996712,65.5650882 L61.2996712,64.0785588 L63.442411,64.0785588 L63.9975753,64.7478235 L63.9975753,66.1777647 L63.9975753,66.1777647 Z M66.4357534,70.7842647 L64.8286986,70.7842647 L64.8286986,64.0774706 L66.4357534,64.0774706 L66.4357534,70.7842647 L66.4357534,70.7842647 Z M69.9918356,70.7842647 L66.8978493,70.7842647 L66.8978493,69.2988235 L69.9918356,69.2988235 L69.9918356,70.7842647 L69.9918356,70.7842647 Z M69.9918356,65.5650882 L66.8978493,65.5650882 L66.8978493,64.0785588 L69.9918356,64.0785588 L69.9918356,65.5650882 L69.9918356,65.5650882 Z" id="Shape"></path>
                </g>
            </g>
        </g>
    </g>
</svg>